Coordinates
version=1
nRows=13
nColumns=36
inDegrees=yes

Units are S.I. units (second, meters, Newtons, ...)
If the header above contains a line with 'inDegrees', this indicates whether rotational values are in degrees (yes) or radians (no).

endheader
time	pelvis_tilt	pelvis_list	pelvis_rotation	pelvis_tx	pelvis_ty	pelvis_tz	hip_flexion_r	hip_adduction_r	hip_rotation_r	knee_angle_r	knee_angle_r_beta	ankle_angle_r	subtalar_angle_r	mtp_angle_r	hip_flexion_l	hip_adduction_l	hip_rotation_l	knee_angle_l	knee_angle_l_beta	ankle_angle_l	subtalar_angle_l	mtp_angle_l	lumbar_extension	lumbar_bending	lumbar_rotation	arm_flex_r	arm_add_r	arm_rot_r	elbow_flex_r	pro_sup_r	arm_flex_l	arm_add_l	arm_rot_l	elbow_flex_l	pro_sup_l
      0.00000000	      0.21903510	     -0.11854010	      6.55012625	      0.50617960	      1.00836670	     -0.15986855	      1.19804646	     -5.93117552	     -0.51603895	     12.84517802	      0.22419065	      3.08874058	    -20.29412908	     -6.48708011	      2.60901574	     -5.90167667	      5.11725188	     12.53145342	      0.21871512	      7.66408228	    -11.32720884	     -6.48708011	     -8.69912213	     -2.03275085	     -4.59984025	     42.50741668	      8.08579564	     65.23482348	    115.29714909	    107.68001511	     34.36111384	      8.50757313	     63.62810231	    120.36148605	    105.83099862
      0.01666670	     -2.43341656	     -1.36901041	      6.38835023	      0.50939722	      1.00106413	     -0.15973422	      3.41873756	     -5.11833505	     -0.73740461	     12.14570382	      0.21198252	      6.23267160	    -16.56756450	     -6.51945471	      5.58207383	     -6.77671215	      6.03093339	     12.25371027	      0.21386759	      8.77331691	     -9.63362174	     -6.51945471	     -4.38534689	     -0.87446608	     -4.05363824	     42.64960811	      7.70563730	     66.79794566	    117.39357237	    106.96490239	     34.77667791	      9.24738706	     65.78308842	    122.08694340	    105.10059912
      0.03333330	     -3.31093847	     -1.74168797	      6.16521516	      0.51030447	      0.99672582	     -0.15919882	      4.15204500	     -4.98008760	     -1.03176055	     11.81357359	      0.20618576	      6.63291751	    -16.54298966	     -6.68783319	      6.59004908	     -7.07455557	      6.30795769	     12.20770736	      0.21306469	      9.11444609	     -9.44868531	     -6.68783319	     -3.11019083	     -0.60939552	     -3.02762510	     41.84104420	      7.15481645	     67.99696227	    118.09664524	    101.57147154	     35.20673376	      9.29390210	     67.51009501	    123.09018610	     99.49865429
      0.05000000	     -3.77198403	     -1.72690271	      6.25151754	      0.51075476	      0.99350799	     -0.15925347	      4.62379438	     -5.00393058	     -1.67791210	     11.74247863	      0.20494491	      7.47331426	    -16.07428037	     -6.75383384	      6.84511853	     -7.12247288	      6.74585753	     11.85137819	      0.20684557	      9.51214123	     -9.63049706	     -6.75383384	     -2.40149871	     -0.74821129	     -2.23397115	     40.90077945	      6.97721592	     68.30655294	    118.07608362	    100.64037077	     35.36472782	      9.26005247	     68.43286341	    123.73143417	     98.22540697
      0.06666670	     -4.21490020	     -1.86228377	      6.33216954	      0.50741437	      0.99241852	     -0.15733343	      5.40790482	     -4.88543947	     -2.19533635	     11.88729603	      0.20747245	      8.03200718	    -15.82957490	     -6.88844288	      7.34493640	     -7.37456287	      6.95763242	     11.59991512	      0.20245671	      9.87152312	     -9.29245221	     -6.88844288	     -1.89111690	     -0.58353544	     -1.45144652	     40.11589041	      6.74967034	     68.46294699	    117.31868586	     97.03926115	     35.53708733	      9.27777918	     69.48245270	    123.81063386	     94.13247000
      0.08333330	     -4.65143971	     -1.91205597	      6.47877708	      0.50409959	      0.99228001	     -0.15531515	      6.22650162	     -4.76567815	     -2.57224309	     12.08637271	      0.21094700	      8.45216459	    -15.77907527	     -6.97444458	      8.06314723	     -7.52586161	      7.23856352	     11.65475293	      0.20341381	      9.81409951	     -9.73062419	     -6.97444458	     -1.49757291	     -0.64979265	     -0.90983456	     39.81999774	      6.72876989	     68.05359000	    116.62932165	     94.70277676	     35.84447303	      9.35826059	     70.02017857	    123.72380572	     90.59757454
      0.10000000	     -4.81185922	     -1.95739258	      6.47881458	      0.50419611	      0.99257182	     -0.16039437	      6.66721000	     -4.82076815	     -2.89409260	     12.31590310	      0.21495306	      8.53627378	    -15.70944268	     -6.97708875	      8.21707360	     -7.54877210	      7.29132653	     11.46562572	      0.20011292	      9.83895801	     -9.54877833	     -6.97708875	     -1.42717080	     -0.47349350	     -1.03276693	     39.76416876	      6.62172186	     67.91238207	    116.26835223	     94.63886892	     35.75471135	      9.49054545	     70.03360944	    123.58349762	     90.43474003
      0.11666670	     -5.26155173	     -2.02140542	      6.58532106	      0.50863445	      0.99437471	     -0.15806730	      7.18235257	     -4.84664219	     -3.47075521	     12.44161092	      0.21714707	      8.95032121	    -14.82994564	     -6.99071630	      8.75513680	     -7.58365959	      7.24948147	     11.65662842	      0.20344655	      9.73906057	     -9.46407477	     -6.99071630	     -0.78805941	     -0.43546670	     -1.31056856	     39.11843560	      6.77727321	     67.69583575	    115.39427239	     94.12170600	     34.92507098	      9.27255443	     69.83884805	    123.41107953	     89.31896915
      0.13333330	     -5.34460084	     -2.07054554	      6.63237109	      0.50137756	      0.99672596	     -0.15838646	      7.64334814	     -4.91220992	     -3.90006719	     12.71299676	      0.22188365	      9.04501018	    -14.48051295	     -7.09840442	      8.93125261	     -7.55510310	      7.28420701	     11.82477175	      0.20638120	      9.66410075	     -9.56930670	     -7.09840442	     -0.85529599	     -0.27714849	     -1.44121076	     39.64254952	      6.72207347	     68.13774710	    114.79629289	     90.23120746	     35.20038524	      9.14382244	     70.35890313	    123.13454242	     81.68418829
      0.15000000	     -5.32281928	     -2.14272314	      6.67800862	      0.50525913	      0.99294368	     -0.16132102	      7.87146115	     -4.95145253	     -4.27020306	     12.96522950	      0.22628594	      8.91687267	    -14.45215595	     -7.10104913	      8.88272684	     -7.56992961	      7.15419703	     11.90610836	      0.20780079	      9.71649770	     -9.58594616	     -7.10104913	     -0.88883334	     -0.07182468	     -1.59593339	     39.82506065	      6.77415157	     68.04892086	    114.81655651	     90.16299702	     35.26830172	      9.28404122	     70.37578417	    122.93866947	     81.62405500
      0.16666670	     -5.34658555	     -2.28106432	      6.69117652	      0.50196469	      0.99453163	     -0.15944278	      8.29543152	     -4.88959428	     -4.74944171	     13.31323682	      0.23235982	      8.72190663	    -14.41751686	     -7.10301980	      8.96688392	     -7.66457880	      7.11100001	     11.94142346	      0.20841716	      9.73062484	     -9.59112062	     -7.10301980	     -1.07776839	      0.11655552	     -1.72510095	     40.15930623	      6.77672270	     68.08043643	    114.89082401	     90.13708309	     35.25196593	      9.45605802	     70.39777944	    122.71954600	     81.55593343
      0.18333330	     -5.46653777	     -2.51316834	      6.76288693	      0.50121640	      0.98907088	     -0.15898022	      8.85249863	     -4.74613289	     -5.14178255	     13.83506879	      0.24146750	      8.77679097	    -14.53045170	     -7.12135376	      9.28358532	     -7.82865456	      7.03096522	     12.38181594	      0.21610346	     10.27955264	     -9.31459781	     -7.12135376	     -1.04376291	      0.31071756	     -1.79997319	     40.77511905	      6.73701413	     68.47953828	    115.16038826	     89.08248271	     35.70845633	      9.64704698	     70.45091892	    122.36789722	     80.57212166
      0.20000000	     -5.46950480	     -2.68505200	      6.76701065	      0.50583513	      0.99309657	     -0.15658183	      8.96796490	     -4.54505151	     -5.56871491	     14.10131872	      0.24611444	      8.52954856	    -14.49627655	     -7.12240901	      9.15645305	     -8.08186708	      6.99055183	     12.41434839	      0.21667125	     10.34936711	     -9.36020679	     -7.12240901	     -1.07521071	      0.44086672	     -1.85308348	     40.58252478	      6.84617078	     68.69357433	    115.24123546	     89.08287402	     35.67763149	      9.67163819	     70.48279456	    122.26494298	     80.52429046
